<?xml version="1.0" encoding="UTF-8" standalone="no"?>
<!DOCTYPE svg PUBLIC "-//W3C//DTD SVG 1.1//EN"
 "http://www.w3.org/Graphics/SVG/1.1/DTD/svg11.dtd">
<!-- Generated by graphviz version 2.48.0 (20210717.1556)
 -->
<!-- Title: snakemake_dag Pages: 1 -->
<svg width="277pt" height="332pt"
 viewBox="0.00 0.00 277.00 332.00" xmlns="http://www.w3.org/2000/svg" xmlns:xlink="http://www.w3.org/1999/xlink">
<g id="graph0" class="graph" transform="scale(1 1) rotate(0) translate(4 328)">
<title>snakemake_dag</title>
<polygon fill="white" stroke="transparent" points="-4,4 -4,-328 273,-328 273,4 -4,4"/>
<!-- 0 -->
<g id="node1" class="node">
<title>0</title>
<path fill="none" stroke="#d89556" stroke-width="2" d="M124,-36C124,-36 94,-36 94,-36 88,-36 82,-30 82,-24 82,-24 82,-12 82,-12 82,-6 88,0 94,0 94,0 124,0 124,0 130,0 136,-6 136,-12 136,-12 136,-24 136,-24 136,-30 130,-36 124,-36"/>
<text text-anchor="middle" x="109" y="-15.5" font-family="sans" font-size="10.00">all</text>
</g>
<!-- 1 -->
<g id="node2" class="node">
<title>1</title>
<path fill="none" stroke="#97d856" stroke-width="2" d="M69,-108C69,-108 39,-108 39,-108 33,-108 27,-102 27,-96 27,-96 27,-84 27,-84 27,-78 33,-72 39,-72 39,-72 69,-72 69,-72 75,-72 81,-78 81,-84 81,-84 81,-96 81,-96 81,-102 75,-108 69,-108"/>
<text text-anchor="middle" x="54" y="-87.5" font-family="sans" font-size="10.00">multiqc</text>
</g>
<!-- 1&#45;&gt;0 -->
<g id="edge1" class="edge">
<title>1&#45;&gt;0</title>
<path fill="none" stroke="grey" stroke-width="2" d="M67.6,-71.7C74.12,-63.39 82.07,-53.28 89.25,-44.14"/>
<polygon fill="grey" stroke="grey" stroke-width="2" points="92.13,-46.13 95.56,-36.1 86.63,-41.81 92.13,-46.13"/>
</g>
<!-- 2 -->
<g id="node3" class="node">
<title>2</title>
<path fill="none" stroke="#56d89a" stroke-width="2" d="M179,-108C179,-108 149,-108 149,-108 143,-108 137,-102 137,-96 137,-96 137,-84 137,-84 137,-78 143,-72 149,-72 149,-72 179,-72 179,-72 185,-72 191,-78 191,-84 191,-84 191,-96 191,-96 191,-102 185,-108 179,-108"/>
<text text-anchor="middle" x="164" y="-87.5" font-family="sans" font-size="10.00">index</text>
</g>
<!-- 2&#45;&gt;0 -->
<g id="edge2" class="edge">
<title>2&#45;&gt;0</title>
<path fill="none" stroke="grey" stroke-width="2" d="M150.4,-71.7C143.88,-63.39 135.93,-53.28 128.75,-44.14"/>
<polygon fill="grey" stroke="grey" stroke-width="2" points="131.37,-41.81 122.44,-36.1 125.87,-46.13 131.37,-41.81"/>
</g>
<!-- 3 -->
<g id="node4" class="node">
<title>3</title>
<path fill="none" stroke="#d85656" stroke-width="2" d="M257,-108C257,-108 221,-108 221,-108 215,-108 209,-102 209,-96 209,-96 209,-84 209,-84 209,-78 215,-72 221,-72 221,-72 257,-72 257,-72 263,-72 269,-78 269,-84 269,-84 269,-96 269,-96 269,-102 263,-108 257,-108"/>
<text text-anchor="middle" x="239" y="-87.5" font-family="sans" font-size="10.00">freebayes</text>
</g>
<!-- 3&#45;&gt;0 -->
<g id="edge3" class="edge">
<title>3&#45;&gt;0</title>
<path fill="none" stroke="grey" stroke-width="2" d="M208.85,-72.76C189.86,-62.54 165.23,-49.28 145.18,-38.48"/>
<polygon fill="grey" stroke="grey" stroke-width="2" points="146.8,-35.38 136.33,-33.72 143.48,-41.54 146.8,-35.38"/>
</g>
<!-- 4 -->
<g id="node5" class="node">
<title>4</title>
<path fill="none" stroke="#d6d856" stroke-width="2" d="M42,-180C42,-180 12,-180 12,-180 6,-180 0,-174 0,-168 0,-168 0,-156 0,-156 0,-150 6,-144 12,-144 12,-144 42,-144 42,-144 48,-144 54,-150 54,-156 54,-156 54,-168 54,-168 54,-174 48,-180 42,-180"/>
<text text-anchor="middle" x="27" y="-159.5" font-family="sans" font-size="10.00">fastqc</text>
</g>
<!-- 4&#45;&gt;0 -->
<g id="edge4" class="edge">
<title>4&#45;&gt;0</title>
<path fill="none" stroke="grey" stroke-width="2" d="M19.56,-143.68C12.66,-124.77 5.23,-94.22 18,-72 29.67,-51.7 52.43,-38.45 72.27,-30.27"/>
<polygon fill="grey" stroke="grey" stroke-width="2" points="73.62,-33.5 81.71,-26.66 71.12,-26.97 73.62,-33.5"/>
</g>
<!-- 4&#45;&gt;1 -->
<g id="edge6" class="edge">
<title>4&#45;&gt;1</title>
<path fill="none" stroke="grey" stroke-width="2" d="M33.67,-143.7C36.71,-135.81 40.38,-126.3 43.76,-117.55"/>
<polygon fill="grey" stroke="grey" stroke-width="2" points="47.07,-118.69 47.4,-108.1 40.54,-116.17 47.07,-118.69"/>
</g>
<!-- 5 -->
<g id="node6" class="node">
<title>5</title>
<path fill="none" stroke="#59d856" stroke-width="2" d="M196,-180C196,-180 132,-180 132,-180 126,-180 120,-174 120,-168 120,-168 120,-156 120,-156 120,-150 126,-144 132,-144 132,-144 196,-144 196,-144 202,-144 208,-150 208,-156 208,-156 208,-168 208,-168 208,-174 202,-180 196,-180"/>
<text text-anchor="middle" x="164" y="-159.5" font-family="sans" font-size="10.00">markDuplication</text>
</g>
<!-- 5&#45;&gt;0 -->
<g id="edge5" class="edge">
<title>5&#45;&gt;0</title>
<path fill="none" stroke="grey" stroke-width="2" d="M149.84,-143.85C142.31,-133.93 133.5,-120.89 128,-108 119.59,-88.29 114.76,-64.49 112.07,-46.46"/>
<polygon fill="grey" stroke="grey" stroke-width="2" points="115.51,-45.76 110.7,-36.33 108.57,-46.71 115.51,-45.76"/>
</g>
<!-- 5&#45;&gt;2 -->
<g id="edge7" class="edge">
<title>5&#45;&gt;2</title>
<path fill="none" stroke="grey" stroke-width="2" d="M164,-143.7C164,-135.98 164,-126.71 164,-118.11"/>
<polygon fill="grey" stroke="grey" stroke-width="2" points="167.5,-118.1 164,-108.1 160.5,-118.1 167.5,-118.1"/>
</g>
<!-- 5&#45;&gt;3 -->
<g id="edge8" class="edge">
<title>5&#45;&gt;3</title>
<path fill="none" stroke="grey" stroke-width="2" d="M182.54,-143.7C191.8,-135.05 203.16,-124.45 213.26,-115.03"/>
<polygon fill="grey" stroke="grey" stroke-width="2" points="215.75,-117.49 220.67,-108.1 210.98,-112.37 215.75,-117.49"/>
</g>
<!-- 6 -->
<g id="node7" class="node">
<title>6</title>
<path fill="none" stroke="#56d8d8" stroke-width="2" d="M179,-252C179,-252 149,-252 149,-252 143,-252 137,-246 137,-240 137,-240 137,-228 137,-228 137,-222 143,-216 149,-216 149,-216 179,-216 179,-216 185,-216 191,-222 191,-228 191,-228 191,-240 191,-240 191,-246 185,-252 179,-252"/>
<text text-anchor="middle" x="164" y="-231.5" font-family="sans" font-size="10.00">sort</text>
</g>
<!-- 6&#45;&gt;5 -->
<g id="edge9" class="edge">
<title>6&#45;&gt;5</title>
<path fill="none" stroke="grey" stroke-width="2" d="M164,-215.7C164,-207.98 164,-198.71 164,-190.11"/>
<polygon fill="grey" stroke="grey" stroke-width="2" points="167.5,-190.1 164,-180.1 160.5,-190.1 167.5,-190.1"/>
</g>
<!-- 7 -->
<g id="node8" class="node">
<title>7</title>
<path fill="none" stroke="#569ad8" stroke-width="2" d="M183,-324C183,-324 145,-324 145,-324 139,-324 133,-318 133,-312 133,-312 133,-300 133,-300 133,-294 139,-288 145,-288 145,-288 183,-288 183,-288 189,-288 195,-294 195,-300 195,-300 195,-312 195,-312 195,-318 189,-324 183,-324"/>
<text text-anchor="middle" x="164" y="-303.5" font-family="sans" font-size="10.00">bwa_align</text>
</g>
<!-- 7&#45;&gt;6 -->
<g id="edge10" class="edge">
<title>7&#45;&gt;6</title>
<path fill="none" stroke="grey" stroke-width="2" d="M164,-287.7C164,-279.98 164,-270.71 164,-262.11"/>
<polygon fill="grey" stroke="grey" stroke-width="2" points="167.5,-262.1 164,-252.1 160.5,-262.1 167.5,-262.1"/>
</g>
</g>
</svg>
